<svg id="Design" xmlns="http://www.w3.org/2000/svg" viewBox="0 0 1210 280"><defs><style>.cls-1{fill:#0d0524;}.cls-2{fill:#6900f5;}</style></defs><path class="cls-1" d="M179.12,222.72v-23.6a26.12,26.12,0,0,1,14.46-23.45L254,145.26a15.66,15.66,0,0,0-7-29.66H189.71v52.57l-10.59,5.29V105H247a26.26,26.26,0,0,1,11.8,49.71l-60.44,30.41a15.57,15.57,0,0,0-8.62,14v23.6Z"/><path class="cls-1" d="M381,222.72V161.44a32.94,32.94,0,0,1,32.89-32.9h35.41v10.59H413.84a22.33,22.33,0,0,0-22.31,22.31v61.28Z"/><path class="cls-1" d="M615.81,222.73a33,33,0,0,1-31.37-23l-.27-.85.8-.39c34.3-16.85,61.79-30.66,67.6-33.77a14.12,14.12,0,0,0,5-4.29,13.53,13.53,0,0,0-11.06-21.31h-30.7a22.17,22.17,0,0,0-20,12.41,21.87,21.87,0,0,0-2.33,9.9v23.31l-9.3,4.64h-1.28V161.44a32.85,32.85,0,0,1,3.49-14.74v-.39l.28-.16a32.79,32.79,0,0,1,29.12-17.61h30.7a24.15,24.15,0,0,1,22,14.21,24.14,24.14,0,0,1,0,19.85,24.09,24.09,0,0,1-11.14,11.58L598.84,203.4a21.39,21.39,0,0,0,10.51,7.79,20.1,20.1,0,0,0,6.14.95H739c9.4,0,17.35-7.72,17.36-16.85a16.78,16.78,0,0,0-9.15-15L694.1,153a25.47,25.47,0,0,1-13.76-23.85c.64-13.55,12-24.16,25.94-24.16h67.56l-21.37,10.58H706.15a15.12,15.12,0,0,0-15.22,13.68,14.82,14.82,0,0,0,8,14.33L752,170.86a27.19,27.19,0,0,1,14.87,25.76c-.69,14.64-13,26.1-28,26.1H615.81Z"/><path class="cls-1" d="M906.44,222.72a32.93,32.93,0,0,1-32.89-32.89V161.44a32.94,32.94,0,0,1,32.89-32.9H965.2l-21.42,10.59H906.44a22.32,22.32,0,0,0-22.3,22.31v28.39a22.33,22.33,0,0,0,22.3,22.31h55.32v10.58Z"/><path class="cls-1" d="M1075.79,222.72a36.18,36.18,0,0,1-36.14-36.14v-21.9a36.18,36.18,0,0,1,36.14-36.14H1096a36.18,36.18,0,0,1,36.14,36.14v21.9A36.18,36.18,0,0,1,1096,222.72Zm0-83.59a25.59,25.59,0,0,0-25.56,25.55v21.9a25.59,25.59,0,0,0,25.56,25.56H1096a25.59,25.59,0,0,0,25.56-25.56v-21.9A25.59,25.59,0,0,0,1096,139.13Z"/><path class="cls-1" d="M1006.16,222.73a32.94,32.94,0,0,1-32.89-32.91V105h10.58v23.54H1034v10.57H983.85v50.7a22.34,22.34,0,0,0,22.31,22.32h27.47v10.59Z"/><path class="cls-1" d="M1142.47,222.72v-61.1a32.93,32.93,0,0,1,32.89-32.9H1205v10.59h-29.64a22.33,22.33,0,0,0-22.31,22.31v61.1Z"/><path class="cls-1" d="M809.46,222.73a33,33,0,0,1-31.37-23l-.26-.85.79-.39c34.29-16.85,61.79-30.65,67.6-33.77a14.12,14.12,0,0,0,5-4.29,13.53,13.53,0,0,0-11.06-21.31h-30.7a22.34,22.34,0,0,0-22.31,22.31v23.31l-9.3,4.64h-1.27V161.44a33,33,0,0,1,3.49-14.74v-.42l.3-.15a32.76,32.76,0,0,1,29.1-17.59h30.7a24.15,24.15,0,0,1,22,14.21,24.19,24.19,0,0,1,0,19.85A24.11,24.11,0,0,1,851,174.18L792.49,203.4A21.44,21.44,0,0,0,803,211.19a20,20,0,0,0,6.13.95H860v10.59Z"/><rect class="cls-1" x="559.41" y="78.55" width="10.58" height="144.18"/><path class="cls-1" d="M456.71,273.62l.09-1.47,0-.46V128.54h10.59v10.13l19.27-10.13h28.1a32.12,32.12,0,0,1,32.08,32.08v30a32.12,32.12,0,0,1-32.08,32.08H467.36v50.9Zm58-61.48a21.52,21.52,0,0,0,21.5-21.5v-30a21.52,21.52,0,0,0-21.5-21.49H467.36v73Z"/><path class="cls-1" d="M315,222.72a32.93,32.93,0,0,1-32.9-32.89V128.52H292.7v61.31A22.34,22.34,0,0,0,315,212.14h44.13V128.52h10.59v94.2Z"/><path class="cls-2" d="M252.81,6.38A119.7,119.7,0,0,0,183.19,28.7L50.46,123.58h0c-5.27,3.82-13.83,4.27-19.12-3.91-3.72-5.75-1.46-14.85,4.45-17.82l76.74-38.5a30.07,30.07,0,0,0,16.63-26.9h0A30.07,30.07,0,0,0,99.07,6.38H7.87A1.54,1.54,0,0,0,6.33,7.93v66L31,61.55v-29A1.48,1.48,0,0,1,32.46,31H99.18a5.3,5.3,0,0,1,5.4,5.28,5.4,5.4,0,0,1-3,4.81L23.44,80.34v0l0,0a38,38,0,0,0,39,65.16h0l136-97.24A92.38,92.38,0,0,1,252.1,31h15.1L301.88,6.38Z"/></svg>